<svg xmlns="http://www.w3.org/2000/svg" width="440" height="130" viewBox="0 0 440 130"><defs><linearGradient id="iconGrad" x1="0%" x2="100%" y1="0%" y2="100%"><stop offset="0%" style="stop-color:#818cf8"/><stop offset="100%" style="stop-color:#22d3ee"/></linearGradient><linearGradient id="xGrad" x1="0%" x2="100%" y1="0%" y2="100%"><stop offset="0%" style="stop-color:#818cf8"/><stop offset="100%" style="stop-color:#22d3ee"/></linearGradient><linearGradient id="bgGrad" x1="0%" x2="100%" y1="0%" y2="100%"><stop offset="0%" style="stop-color:#0f0f1a"/><stop offset="100%" style="stop-color:#131325"/></linearGradient><filter id="glow"><feGaussianBlur result="blur" stdDeviation="6"/><feComposite in="SourceGraphic" in2="blur" operator="over"/></filter><filter id="shieldGlow"><feDropShadow dx="0" dy="0" flood-color="#6366F1" flood-opacity=".4" stdDeviation="8"/></filter></defs><rect width="440" height="130" fill="url(#bgGrad)" rx="14"/><line x1="0" x2="440" y1="65" y2="65" stroke="#fff" stroke-width=".3" opacity=".03"/><line x1="220" x2="220" y1="0" y2="130" stroke="#fff" stroke-width=".3" opacity=".03"/><ellipse cx="50" cy="62" fill="#6366F1" opacity=".08" rx="38" ry="42"/><path fill="rgba(99,102,241,0.08)" d="M20 12 L80 12 L80 68 Q80 95 50 108 Q20 95 20 68 Z" filter="url(#shieldGlow)"/><path fill="none" stroke="url(#iconGrad)" stroke-width="2" d="M20 12 L80 12 L80 68 Q80 95 50 108 Q20 95 20 68 Z"/><path fill="none" stroke="url(#iconGrad)" stroke-width="1" d="M29 21 L71 21 L71 67 Q71 88 50 99 Q29 88 29 67 Z" opacity=".25"/><path fill="none" stroke="url(#iconGrad)" stroke-linecap="round" stroke-width="2.8" d="M40 56 L40 47 Q40 36 50 36 Q60 36 60 47 L60 56"/><rect width="26" height="20" x="37" y="55" fill="url(#iconGrad)" opacity=".9" rx="4"/><circle cx="50" cy="65" r="3.5" fill="#0F0F1A"/><rect width="3" height="5" x="48.5" y="65" fill="#0F0F1A" rx="1.5"/><text x="102" y="80" fill="#F1F5F9" font-family="'Helvetica Neue', 'Arial', sans-serif" font-size="50" font-weight="800" letter-spacing="-2.5">Permi</text><text x="261" y="80" fill="url(#xGrad)" font-family="'Helvetica Neue', 'Arial', sans-serif" font-size="50" font-weight="800" letter-spacing="-2.5">X</text><rect width="200" height="1" x="102" y="88" fill="url(#iconGrad)" opacity=".2" rx="1"/><text x="103" y="110" fill="#475569" font-family="'Helvetica Neue', 'Arial', sans-serif" font-size="10.5" font-weight="500" letter-spacing="4.5">SHAREPOINT ACCESS ANALYZER</text></svg>