<svg xmlns="http://www.w3.org/2000/svg" width="120" height="120" viewBox="0 0 120 120"><defs><linearGradient id="bgG" x1="0%" x2="100%" y1="0%" y2="100%"><stop offset="0%" style="stop-color:#0f0f1a"/><stop offset="100%" style="stop-color:#1a1a2e"/></linearGradient><linearGradient id="iconG" x1="0%" x2="100%" y1="0%" y2="100%"><stop offset="0%" style="stop-color:#818cf8"/><stop offset="100%" style="stop-color:#22d3ee"/></linearGradient><filter id="glow"><feDropShadow dx="0" dy="0" flood-color="#6366F1" flood-opacity=".5" stdDeviation="6"/></filter></defs><rect width="120" height="120" fill="url(#bgG)" rx="24"/><ellipse cx="60" cy="62" fill="#6366F1" opacity=".07" rx="40" ry="44"/><path fill="rgba(99,102,241,0.1)" d="M25 14 L95 14 L95 72 Q95 102 60 116 Q25 102 25 72 Z" filter="url(#glow)"/><path fill="none" stroke="url(#iconG)" stroke-width="2.5" d="M25 14 L95 14 L95 72 Q95 102 60 116 Q25 102 25 72 Z"/><path fill="none" stroke="url(#iconG)" stroke-width="1" d="M34 23 L86 23 L86 71 Q86 95 60 107 Q34 95 34 71 Z" opacity=".22"/><path fill="none" stroke="url(#iconG)" stroke-linecap="round" stroke-width="3.5" d="M45 62 L45 51 Q45 38 60 38 Q75 38 75 51 L75 62"/><rect width="36" height="26" x="42" y="61" fill="url(#iconG)" rx="6"/><circle cx="60" cy="74" r="5" fill="#0F0F1A"/><rect width="5" height="7" x="57.5" y="74" fill="#0F0F1A" rx="2.5"/></svg>