<svg xmlns="http://www.w3.org/2000/svg" width="440" height="130" viewBox="0 0 440 130"><defs><linearGradient id="iconGrad" x1="0%" x2="100%" y1="0%" y2="100%"><stop offset="0%" style="stop-color:#6366f1"/><stop offset="100%" style="stop-color:#06b6d4"/></linearGradient><linearGradient id="xGrad" x1="0%" x2="100%" y1="0%" y2="100%"><stop offset="0%" style="stop-color:#6366f1"/><stop offset="100%" style="stop-color:#06b6d4"/></linearGradient></defs><path fill="#EEF2FF" d="M20 12 L80 12 L80 68 Q80 95 50 108 Q20 95 20 68 Z"/><path fill="none" stroke="url(#iconGrad)" stroke-width="2.5" d="M20 12 L80 12 L80 68 Q80 95 50 108 Q20 95 20 68 Z"/><path fill="none" stroke="url(#iconGrad)" stroke-width="1.2" d="M29 21 L71 21 L71 67 Q71 88 50 99 Q29 88 29 67 Z" opacity=".3"/><path fill="none" stroke="url(#iconGrad)" stroke-linecap="round" stroke-width="3" d="M40 56 L40 47 Q40 36 50 36 Q60 36 60 47 L60 56"/><rect width="26" height="20" x="37" y="55" fill="url(#iconGrad)" rx="4"/><circle cx="50" cy="65" r="3.5" fill="#fff"/><rect width="3" height="5" x="48.5" y="65" fill="#fff" rx="1.5"/><text x="102" y="80" fill="#0F172A" font-family="'Helvetica Neue', 'Arial', sans-serif" font-size="50" font-weight="800" letter-spacing="-2.5">Permi</text><text x="261" y="80" fill="url(#xGrad)" font-family="'Helvetica Neue', 'Arial', sans-serif" font-size="50" font-weight="800" letter-spacing="-2.5">X</text><rect width="200" height="1.5" x="102" y="88" fill="url(#iconGrad)" opacity=".15" rx="1"/><text x="103" y="110" fill="#94A3B8" font-family="'Helvetica Neue', 'Arial', sans-serif" font-size="10.5" font-weight="500" letter-spacing="4.5">SHAREPOINT ACCESS ANALYZER</text></svg>